<svg width="22" height="22" viewBox="0 0 22 22" fill="none" xmlns="http://www.w3.org/2000/svg">
<path d="M1 2.00001H2.1327L2.58101 5.13812L3.63722 12.9013C3.69987 13.3619 3.75433 13.7623 3.82517 14.0916C3.90043 14.4415 4.00806 14.7843 4.21399 15.1085C4.52401 15.5966 4.96847 15.9847 5.49387 16.2261C5.84288 16.3864 6.19707 16.4468 6.55391 16.4742C6.88978 16.5 7.29386 16.5 7.75873 16.5H16.3861C16.8282 16.5 17.2136 16.5 17.535 16.476C17.8772 16.4505 18.2167 16.3941 18.5539 16.2456C19.0633 16.0213 19.5003 15.6598 19.8159 15.2013C20.0249 14.8978 20.1438 14.5749 20.2329 14.2435C20.3166 13.9323 20.3887 13.5538 20.4714 13.1195L21.8064 6.11082C21.833 5.97125 21.8638 5.81024 21.8782 5.66825C21.8944 5.50852 21.9038 5.26571 21.8102 5.00051C21.6918 4.66532 21.4582 4.38307 21.1511 4.20406C20.9081 4.06244 20.6678 4.02624 20.5079 4.01229C20.3657 3.9999 20.2018 3.99995 20.0597 4L4.43872 4.00001L4.08515 1.52494C4.07045 1.42175 4.0525 1.29574 4.0279 1.18487C3.99894 1.05432 3.94695 0.874029 3.82874 0.689847C3.67333 0.447686 3.45155 0.255335 3.18984 0.135732C2.9908 0.0447652 2.80497 0.0187894 2.67163 0.00858296C2.55839 -8.46107e-05 2.43112 -3.49737e-05 2.32688 5.67645e-06L1 1.11611e-05C0.447715 1.11611e-05 0 0.447726 0 1.00001C0 1.5523 0.447715 2.00001 1 2.00001Z" fill="white"/>
<path d="M6 20C6 18.8954 6.89543 18 8 18C9.10457 18 10 18.8954 10 20C10 21.1046 9.10457 22 8 22C6.89543 22 6 21.1046 6 20Z" fill="white"/>
<path d="M14 20C14 18.8954 14.8954 18 16 18C17.1046 18 18 18.8954 18 20C18 21.1046 17.1046 22 16 22C14.8954 22 14 21.1046 14 20Z" fill="white"/>
</svg>
