<svg width="60" height="60" viewBox="0 0 60 60" fill="none" xmlns="http://www.w3.org/2000/svg">
<g filter="url(#filter0_dii_2138_5978)">
<rect x="2" y="1" width="56" height="56" rx="8" fill="#0080FF"/>
<rect x="3" y="2" width="54" height="54" rx="7" stroke="url(#paint0_linear_2138_5978)" stroke-width="2"/>
<path d="M39.3337 39.5C39.3337 37.8718 39.3337 37.0578 39.1327 36.3953C38.6803 34.9039 37.5131 33.7367 36.0217 33.2843C35.3592 33.0833 34.5451 33.0833 32.917 33.0833H27.0837C25.4555 33.0833 24.6414 33.0833 23.979 33.2843C22.4875 33.7367 21.3204 34.9039 20.8679 36.3953C20.667 37.0578 20.667 37.8718 20.667 39.5M35.2503 23.75C35.2503 26.6495 32.8998 29 30.0003 29C27.1008 29 24.7503 26.6495 24.7503 23.75C24.7503 20.8505 27.1008 18.5 30.0003 18.5C32.8998 18.5 35.2503 20.8505 35.2503 23.75Z" stroke="white" stroke-width="2" stroke-linecap="round" stroke-linejoin="round"/>
</g>
<defs>
<filter id="filter0_dii_2138_5978" x="0" y="0" width="60" height="60" filterUnits="userSpaceOnUse" color-interpolation-filters="sRGB">
<feFlood flood-opacity="0" result="BackgroundImageFix"/>
<feColorMatrix in="SourceAlpha" type="matrix" values="0 0 0 0 0 0 0 0 0 0 0 0 0 0 0 0 0 0 127 0" result="hardAlpha"/>
<feOffset dy="1"/>
<feGaussianBlur stdDeviation="1"/>
<feComposite in2="hardAlpha" operator="out"/>
<feColorMatrix type="matrix" values="0 0 0 0 0.0627451 0 0 0 0 0.0941176 0 0 0 0 0.156863 0 0 0 0.05 0"/>
<feBlend mode="normal" in2="BackgroundImageFix" result="effect1_dropShadow_2138_5978"/>
<feBlend mode="normal" in="SourceGraphic" in2="effect1_dropShadow_2138_5978" result="shape"/>
<feColorMatrix in="SourceAlpha" type="matrix" values="0 0 0 0 0 0 0 0 0 0 0 0 0 0 0 0 0 0 127 0" result="hardAlpha"/>
<feOffset dy="-2"/>
<feComposite in2="hardAlpha" operator="arithmetic" k2="-1" k3="1"/>
<feColorMatrix type="matrix" values="0 0 0 0 0.0392157 0 0 0 0 0.0496732 0 0 0 0 0.0705882 0 0 0 0.05 0"/>
<feBlend mode="normal" in2="shape" result="effect2_innerShadow_2138_5978"/>
<feColorMatrix in="SourceAlpha" type="matrix" values="0 0 0 0 0 0 0 0 0 0 0 0 0 0 0 0 0 0 127 0" result="hardAlpha"/>
<feMorphology radius="1" operator="erode" in="SourceAlpha" result="effect3_innerShadow_2138_5978"/>
<feOffset/>
<feComposite in2="hardAlpha" operator="arithmetic" k2="-1" k3="1"/>
<feColorMatrix type="matrix" values="0 0 0 0 0.0392157 0 0 0 0 0.0496732 0 0 0 0 0.0705882 0 0 0 0.18 0"/>
<feBlend mode="normal" in2="effect2_innerShadow_2138_5978" result="effect3_innerShadow_2138_5978"/>
</filter>
<linearGradient id="paint0_linear_2138_5978" x1="30" y1="1" x2="30" y2="57" gradientUnits="userSpaceOnUse">
<stop stop-color="white" stop-opacity="0.12"/>
<stop offset="1" stop-color="white" stop-opacity="0"/>
</linearGradient>
</defs>
</svg>
