<svg width="26" height="26" viewBox="0 0 26 26" fill="none" xmlns="http://www.w3.org/2000/svg">
<path d="M19.2984 20.5449H21.3814C22.5896 20.5449 23.578 19.5014 23.2082 18.3512C22.1894 15.1828 19.5644 13.8705 17.2151 14.4144M12.0068 8.04492C12.0068 9.77081 10.6077 11.1699 8.88184 11.1699C7.15596 11.1699 5.75684 9.77081 5.75684 8.04492C5.75684 6.31904 7.15596 4.91992 8.88184 4.91992C10.6077 4.91992 12.0068 6.31904 12.0068 8.04492ZM20.861 8.56576C20.861 10.004 19.695 11.1699 18.2568 11.1699C16.8186 11.1699 15.6526 10.004 15.6526 8.56576C15.6526 7.12752 16.8186 5.96159 18.2568 5.96159C19.695 5.96159 20.861 7.12752 20.861 8.56576ZM12.8965 21.5866H4.86721C3.65893 21.5866 2.67781 20.5444 3.0025 19.3805C4.89425 12.5997 12.8694 12.5997 14.7612 19.3805C15.0859 20.5444 14.1047 21.5866 12.8965 21.5866Z" stroke="#0080FF" stroke-width="1.5" stroke-linecap="round" stroke-linejoin="round"/>
</svg>
