<svg width="60" height="60" viewBox="0 0 60 60" fill="none" xmlns="http://www.w3.org/2000/svg">
<g filter="url(#filter0_dii_2138_5668)">
<rect x="2" y="1" width="56" height="56" rx="8" fill="#0080FF"/>
<rect x="3" y="2" width="54" height="54" rx="7" stroke="url(#paint0_linear_2138_5668)" stroke-width="2"/>
<path d="M18.334 23.167L27.8597 29.835C28.6311 30.375 29.0168 30.6449 29.4363 30.7495C29.8069 30.8419 30.1944 30.8419 30.565 30.7495C30.9845 30.6449 31.3702 30.375 32.1416 29.835L41.6673 23.167M23.934 38.3337H36.0673C38.0275 38.3337 39.0076 38.3337 39.7563 37.9522C40.4149 37.6166 40.9503 37.0812 41.2858 36.4226C41.6673 35.6739 41.6673 34.6938 41.6673 32.7337V25.267C41.6673 23.3068 41.6673 22.3267 41.2858 21.578C40.9503 20.9195 40.4149 20.384 39.7563 20.0485C39.0076 19.667 38.0275 19.667 36.0673 19.667H23.934C21.9738 19.667 20.9937 19.667 20.245 20.0485C19.5865 20.384 19.051 20.9195 18.7155 21.578C18.334 22.3267 18.334 23.3068 18.334 25.267V32.7337C18.334 34.6938 18.334 35.6739 18.7155 36.4226C19.051 37.0812 19.5865 37.6166 20.245 37.9522C20.9937 38.3337 21.9738 38.3337 23.934 38.3337Z" stroke="white" stroke-width="2" stroke-linecap="round" stroke-linejoin="round"/>
</g>
<defs>
<filter id="filter0_dii_2138_5668" x="0" y="0" width="60" height="60" filterUnits="userSpaceOnUse" color-interpolation-filters="sRGB">
<feFlood flood-opacity="0" result="BackgroundImageFix"/>
<feColorMatrix in="SourceAlpha" type="matrix" values="0 0 0 0 0 0 0 0 0 0 0 0 0 0 0 0 0 0 127 0" result="hardAlpha"/>
<feOffset dy="1"/>
<feGaussianBlur stdDeviation="1"/>
<feComposite in2="hardAlpha" operator="out"/>
<feColorMatrix type="matrix" values="0 0 0 0 0.0627451 0 0 0 0 0.0941176 0 0 0 0 0.156863 0 0 0 0.05 0"/>
<feBlend mode="normal" in2="BackgroundImageFix" result="effect1_dropShadow_2138_5668"/>
<feBlend mode="normal" in="SourceGraphic" in2="effect1_dropShadow_2138_5668" result="shape"/>
<feColorMatrix in="SourceAlpha" type="matrix" values="0 0 0 0 0 0 0 0 0 0 0 0 0 0 0 0 0 0 127 0" result="hardAlpha"/>
<feOffset dy="-2"/>
<feComposite in2="hardAlpha" operator="arithmetic" k2="-1" k3="1"/>
<feColorMatrix type="matrix" values="0 0 0 0 0.0392157 0 0 0 0 0.0496732 0 0 0 0 0.0705882 0 0 0 0.05 0"/>
<feBlend mode="normal" in2="shape" result="effect2_innerShadow_2138_5668"/>
<feColorMatrix in="SourceAlpha" type="matrix" values="0 0 0 0 0 0 0 0 0 0 0 0 0 0 0 0 0 0 127 0" result="hardAlpha"/>
<feMorphology radius="1" operator="erode" in="SourceAlpha" result="effect3_innerShadow_2138_5668"/>
<feOffset/>
<feComposite in2="hardAlpha" operator="arithmetic" k2="-1" k3="1"/>
<feColorMatrix type="matrix" values="0 0 0 0 0.0392157 0 0 0 0 0.0496732 0 0 0 0 0.0705882 0 0 0 0.18 0"/>
<feBlend mode="normal" in2="effect2_innerShadow_2138_5668" result="effect3_innerShadow_2138_5668"/>
</filter>
<linearGradient id="paint0_linear_2138_5668" x1="30" y1="1" x2="30" y2="57" gradientUnits="userSpaceOnUse">
<stop stop-color="white" stop-opacity="0.12"/>
<stop offset="1" stop-color="white" stop-opacity="0"/>
</linearGradient>
</defs>
</svg>
