<svg width="23" height="23" viewBox="0 0 23 23" fill="none" xmlns="http://www.w3.org/2000/svg">
<path d="M7.5931 13.6111C7.5931 13.6111 9.09625 15.6088 11.5962 15.6048C14.0962 15.6009 15.5931 13.5985 15.5931 13.5985M14.5852 8.60013L14.5952 8.60011M7.58523 8.61115L9.58523 8.608M21.5899 11.5891C21.5986 17.1119 17.1285 21.5961 11.6057 21.6048C6.08285 21.6135 1.59866 17.1434 1.58996 11.6206C1.58127 6.09775 6.05137 1.61356 11.5742 1.60486C17.097 1.59617 21.5812 6.06626 21.5899 11.5891ZM15.0852 8.59934C15.0857 8.87548 14.8622 9.09969 14.586 9.10013C14.3099 9.10056 14.0857 8.87706 14.0852 8.60092C14.0848 8.32477 14.3083 8.10056 14.5844 8.10013C14.8606 8.09969 15.0848 8.3232 15.0852 8.59934Z" stroke="white" stroke-width="2" stroke-linecap="round" stroke-linejoin="round"/>
</svg>
