<svg width="25" height="25" viewBox="0 0 25 25" fill="none" xmlns="http://www.w3.org/2000/svg">
<path d="M5.901 14.3516C4.94314 14.3516 4.16663 15.1281 4.16663 16.0859V19.0988C4.16663 20.0566 4.94314 20.8331 5.901 20.8331C6.85887 20.8331 7.63538 20.0566 7.63538 19.0988V16.0859C7.63538 15.1281 6.85887 14.3516 5.901 14.3516Z" stroke="#0080FF" stroke-width="1.5" stroke-linecap="square" stroke-linejoin="round"/>
<path d="M12.4948 9.72266C11.5369 9.72266 10.7604 10.4991 10.7604 11.4571V19.0993C10.7604 20.0573 11.5369 20.8338 12.4948 20.8338C13.4527 20.8338 14.2291 20.0573 14.2291 19.0993V11.4571C14.2291 10.4991 13.4527 9.72266 12.4948 9.72266Z" stroke="#0080FF" stroke-width="1.5" stroke-linecap="square" stroke-linejoin="round"/>
<path d="M19.099 4.1665C18.1411 4.1665 17.3646 4.94301 17.3646 5.90088V19.0988C17.3646 20.0567 18.1411 20.8332 19.099 20.8332C20.0569 20.8332 20.8334 20.0567 20.8334 19.0988V5.90088C20.8334 4.94301 20.0569 4.1665 19.099 4.1665Z" stroke="#0080FF" stroke-width="1.5" stroke-linecap="square" stroke-linejoin="round"/>
</svg>
