<svg width="60" height="60" viewBox="0 0 60 60" fill="none" xmlns="http://www.w3.org/2000/svg">
<g filter="url(#filter0_dii_2138_5690)">
<rect x="2" y="1" width="56" height="56" rx="8" fill="#0080FF"/>
<rect x="3" y="2" width="54" height="54" rx="7" stroke="url(#paint0_linear_2138_5690)" stroke-width="2"/>
<path d="M35.8327 26.6667V24.3333C35.8327 21.1117 33.221 18.5 29.9993 18.5C26.7777 18.5 24.166 21.1117 24.166 24.3333V26.6667M29.9993 31.9167V34.25M26.266 39.5H33.7327C35.6929 39.5 36.673 39.5 37.4217 39.1185C38.0802 38.783 38.6156 38.2475 38.9512 37.589C39.3327 36.8403 39.3327 35.8602 39.3327 33.9V32.2667C39.3327 30.3065 39.3327 29.3264 38.9512 28.5777C38.6156 27.9191 38.0802 27.3837 37.4217 27.0481C36.673 26.6667 35.6929 26.6667 33.7327 26.6667H26.266C24.3058 26.6667 23.3257 26.6667 22.577 27.0481C21.9185 27.3837 21.383 27.9191 21.0475 28.5777C20.666 29.3264 20.666 30.3065 20.666 32.2667V33.9C20.666 35.8602 20.666 36.8403 21.0475 37.589C21.383 38.2475 21.9185 38.783 22.577 39.1185C23.3257 39.5 24.3058 39.5 26.266 39.5Z" stroke="white" stroke-width="2" stroke-linecap="round" stroke-linejoin="round"/>
</g>
<defs>
<filter id="filter0_dii_2138_5690" x="0" y="0" width="60" height="60" filterUnits="userSpaceOnUse" color-interpolation-filters="sRGB">
<feFlood flood-opacity="0" result="BackgroundImageFix"/>
<feColorMatrix in="SourceAlpha" type="matrix" values="0 0 0 0 0 0 0 0 0 0 0 0 0 0 0 0 0 0 127 0" result="hardAlpha"/>
<feOffset dy="1"/>
<feGaussianBlur stdDeviation="1"/>
<feComposite in2="hardAlpha" operator="out"/>
<feColorMatrix type="matrix" values="0 0 0 0 0.0627451 0 0 0 0 0.0941176 0 0 0 0 0.156863 0 0 0 0.05 0"/>
<feBlend mode="normal" in2="BackgroundImageFix" result="effect1_dropShadow_2138_5690"/>
<feBlend mode="normal" in="SourceGraphic" in2="effect1_dropShadow_2138_5690" result="shape"/>
<feColorMatrix in="SourceAlpha" type="matrix" values="0 0 0 0 0 0 0 0 0 0 0 0 0 0 0 0 0 0 127 0" result="hardAlpha"/>
<feOffset dy="-2"/>
<feComposite in2="hardAlpha" operator="arithmetic" k2="-1" k3="1"/>
<feColorMatrix type="matrix" values="0 0 0 0 0.0392157 0 0 0 0 0.0496732 0 0 0 0 0.0705882 0 0 0 0.05 0"/>
<feBlend mode="normal" in2="shape" result="effect2_innerShadow_2138_5690"/>
<feColorMatrix in="SourceAlpha" type="matrix" values="0 0 0 0 0 0 0 0 0 0 0 0 0 0 0 0 0 0 127 0" result="hardAlpha"/>
<feMorphology radius="1" operator="erode" in="SourceAlpha" result="effect3_innerShadow_2138_5690"/>
<feOffset/>
<feComposite in2="hardAlpha" operator="arithmetic" k2="-1" k3="1"/>
<feColorMatrix type="matrix" values="0 0 0 0 0.0392157 0 0 0 0 0.0496732 0 0 0 0 0.0705882 0 0 0 0.18 0"/>
<feBlend mode="normal" in2="effect2_innerShadow_2138_5690" result="effect3_innerShadow_2138_5690"/>
</filter>
<linearGradient id="paint0_linear_2138_5690" x1="30" y1="1" x2="30" y2="57" gradientUnits="userSpaceOnUse">
<stop stop-color="white" stop-opacity="0.12"/>
<stop offset="1" stop-color="white" stop-opacity="0"/>
</linearGradient>
</defs>
</svg>
