<svg width="25" height="21" viewBox="0 0 25 21" fill="none" xmlns="http://www.w3.org/2000/svg">
<path d="M19.3911 18.6575H21.7056C23.0481 18.6575 24.1462 17.498 23.7354 16.22C22.6034 12.6996 19.6868 11.2415 17.0765 11.8458M11.2894 4.76861C11.2894 6.68626 9.73489 8.24083 7.81723 8.24083C5.89958 8.24083 4.345 6.68626 4.345 4.76861C4.345 2.85096 5.89958 1.29639 7.81723 1.29639C9.73489 1.29639 11.2894 2.85096 11.2894 4.76861ZM21.1274 5.34731C21.1274 6.94536 19.8319 8.24083 18.2339 8.24083C16.6358 8.24083 15.3403 6.94536 15.3403 5.34731C15.3403 3.74927 16.6358 2.45379 18.2339 2.45379C19.8319 2.45379 21.1274 3.74927 21.1274 5.34731ZM12.278 19.8149H3.35652C2.01399 19.8149 0.923859 18.6569 1.28462 17.3637C3.38657 9.82949 12.2479 9.82949 14.3498 17.3637C14.7106 18.6569 13.6204 19.8149 12.278 19.8149Z" stroke="#0080FF" stroke-width="1.5" stroke-linecap="round" stroke-linejoin="round"/>
</svg>
