<svg width="30" height="30" viewBox="0 0 30 30" fill="none" xmlns="http://www.w3.org/2000/svg">
<path d="M18.3339 6.33335L20.3339 8.33335M14.3339 10.3333L16.3339 12.3333M10.3339 14.3333L12.3339 16.3333M6.33394 18.3333L8.33394 20.3333M2.42146 22.421L7.57964 27.5791C7.84365 27.8432 7.97565 27.9752 8.12787 28.0246C8.26177 28.0681 8.406 28.0681 8.53989 28.0246C8.69211 27.9752 8.82412 27.8432 9.08813 27.5792L27.5796 9.08764C27.8436 8.82363 27.9757 8.69163 28.0251 8.53941C28.0686 8.40551 28.0686 8.26128 28.0251 8.12738C27.9757 7.97517 27.8436 7.84316 27.5796 7.57915L22.4215 2.42098C22.1575 2.15696 22.0254 2.02496 21.8732 1.9755C21.7393 1.93199 21.5951 1.93199 21.4612 1.9755C21.309 2.02496 21.177 2.15696 20.913 2.42098L2.42146 20.9125C2.15745 21.1765 2.02545 21.3085 1.97599 21.4607C1.93248 21.5946 1.93248 21.7388 1.97599 21.8727C2.02545 22.025 2.15745 22.157 2.42146 22.421Z" stroke="white" stroke-width="2" stroke-linecap="round" stroke-linejoin="round"/>
</svg>
