<svg width="32" height="32" viewBox="0 0 32 32" fill="none" xmlns="http://www.w3.org/2000/svg">
<path d="M8.66601 17.3332L9.71196 19.4251C10.0659 20.133 10.2429 20.487 10.4794 20.7938C10.6892 21.066 10.9332 21.31 11.2054 21.5198C11.5122 21.7562 11.8662 21.9332 12.5741 22.2872L14.666 23.3332L12.5741 24.3791C11.8662 24.7331 11.5122 24.9101 11.2054 25.1465C10.9332 25.3564 10.6892 25.6004 10.4794 25.8726C10.2429 26.1793 10.0659 26.5333 9.71196 27.2413L8.66602 29.3332L7.62007 27.2413C7.26609 26.5333 7.08909 26.1793 6.85264 25.8726C6.64283 25.6004 6.39881 25.3564 6.12661 25.1465C5.81986 24.9101 5.46588 24.7331 4.7579 24.3791L2.66602 23.3332L4.7579 22.2872C5.46588 21.9332 5.81986 21.7562 6.12661 21.5198C6.39881 21.31 6.64283 21.066 6.85264 20.7938C7.08909 20.487 7.26609 20.133 7.62007 19.4251L8.66601 17.3332Z" stroke="white" stroke-width="2" stroke-linecap="round" stroke-linejoin="round"/>
<path d="M19.9993 2.6665L21.5708 6.7524C21.9469 7.73003 22.1349 8.21885 22.4272 8.63003C22.6864 8.99444 23.0047 9.31283 23.3692 9.57195C23.7803 9.86432 24.2691 10.0523 25.2468 10.4283L29.3327 11.9998L25.2468 13.5713C24.2692 13.9473 23.7803 14.1354 23.3692 14.4277C23.0047 14.6868 22.6864 15.0052 22.4272 15.3696C22.1349 15.7808 21.9469 16.2696 21.5708 17.2473L19.9993 21.3332L18.4279 17.2473C18.0518 16.2696 17.8638 15.7808 17.5715 15.3696C17.3123 15.0052 16.994 14.6868 16.6295 14.4277C16.2184 14.1354 15.7295 13.9473 14.7519 13.5713L10.666 11.9998L14.7519 10.4283C15.7295 10.0523 16.2184 9.86432 16.6295 9.57195C16.994 9.31283 17.3123 8.99444 17.5715 8.63003C17.8638 8.21885 18.0518 7.73003 18.4279 6.75239L19.9993 2.6665Z" stroke="white" stroke-width="2" stroke-linecap="round" stroke-linejoin="round"/>
</svg>
